#!OML:ASF F:\VICON\USERDATA\INSTALL\rory3\rory3.ASF
:FULLY-SPECIFIED
:DEGREES
409
root -0.126039 15.8694 28.6837 1.67358 1.1584 -1.98589
lowerback 11.5453 1.22635 -3.23667
upperback -4.65666 1.35662 2.14056
thorax -11.727 0.993717 3.87751
lowerneck -9.7002 -6.62358 -4.83297
upperneck 19.5884 -9.27851 4.6109
head 8.10179 -4.34269 1.38429
rclavicle -3.35449e-016 1.63003e-014
rhumerus -30.4088 -1.79733 -82.3431
rradius 32.8784
rwrist -3.12469
rhand -10.9898 18.7641
rfingers 7.12502
rthumb 15.0303 -10.6704
lclavicle -3.35449e-016 1.63003e-014
lhumerus -39.7317 7.69881 84.2146
lradius 25.1827
lwrist 2.52065
lhand -4.68315 18.6634
lfingers 7.12502
lthumb 21.0978 47.5356
rfemur 20.2092 10.7473 31.5793
rtibia 3.18055e-015
rfoot -11.9743 -7.2877
rtoes -11.4738
lfemur -35.5703 -24.9589 -10.1271
ltibia 26.5017
lfoot -12.888 20.1457
ltoes 12.0059
410
root -0.10233 15.8475 28.8318 1.59264 0.928184 -2.05081
lowerback 11.2766 1.27371 -3.16496
upperback -4.49981 1.43802 2.14046
thorax -11.3927 1.01757 3.81905
lowerneck -10.0817 -6.65667 -4.63572
upperneck 19.7502 -9.30332 4.37093
head 8.20433 -4.35305 1.2564
rclavicle 5.30507e-015 -9.14409e-015
rhumerus -30.3766 -2.41434 -82.167
rradius 31.7815
rwrist -2.41257
rhand -10.7509 18.2386
rfingers 7.12502
rthumb 15.2604 -11.1785
lclavicle 5.30507e-015 -9.14409e-015
lhumerus -39.3979 7.51325 84.2817
lradius 24.9282
lwrist 2.54385
lhand -4.55883 18.9413
lfingers 7.12502
lthumb 21.2172 47.8001
rfemur 20.9095 10.5828 31.5785
rtibia -6.04305e-014
rfoot -11.9582 -6.94746
rtoes -13.2132
lfemur -35.2575 -24.3452 -10.6242
ltibia 26.8181
lfoot -12.5632 19.2136
ltoes 13.3841
411
root -0.0801564 15.8223 28.9788 1.46354 0.628179 -2.13962
lowerback 11.2698 1.35933 -3.10992
upperback -4.47918 1.562 2.1385
thorax -11.3753 1.07183 3.7591
lowerneck -10.0312 -6.67473 -4.68202
upperneck 19.7409 -9.3463 4.48404
head 8.20226 -4.3673 1.29793
rclavicle 1.62755e-015 -1.19271e-014
rhumerus -30.7398 -3.24345 -81.9189
rradius 30.9059
rwrist -1.36334
rhand -10.2206 17.363
rfingers 7.12502
rthumb 15.7712 -12.0145
lclavicle 1.62755e-015 -1.19271e-014
lhumerus -39.433 7.49162 84.1865
lradius 24.8842
lwrist 2.39202
lhand -4.45702 19.3317
lfingers 7.12502
lthumb 21.315 48.1795
rfemur 21.6267 10.4786 31.6079
rtibia 0
rfoot -11.8139 -6.57324
rtoes -15.316
lfemur -34.9418 -23.3681 -11.2342
ltibia 27.2171
lfoot -11.2943 18.193
ltoes 12.3712
412
root -0.0516664 15.7973 29.1279 1.4214 0.392181 -2.08056
lowerback 11.3247 1.3847 -3.15447
upperback -4.61572 1.58632 2.11886
thorax -11.5662 1.09189 3.75795
lowerneck -9.08453 -6.52784 -4.94071
upperneck 19.0696 -9.19627 4.96575
head 7.83666 -4.29864 1.55249
rclavicle 7.36746e-015 -1.41137e-014
rhumerus -31.3498 -3.81887 -81.658
rradius 30.358
rwrist -0.186681
rhand -10.1102 16.9756
rfingers 7.12502
rthumb 15.8776 -12.3934
lclavicle 7.36746e-015 -1.41137e-014
lhumerus -39.784 7.58258 84.0207
lradius 24.8674
lwrist 2.31565
lhand -4.55019 19.154
lfingers 7.12502
lthumb 21.2255 48.0118
rfemur 22.2848 10.3377 31.4271
rtibia -1.90833e-014
rfoot -11.5785 -6.1739
rtoes -16.5543
lfemur -34.4081 -22.4844 -12.037
ltibia 27.6956
lfoot -10.4806 16.7307
ltoes 12.7234
413
root -0.0255249 15.7766 29.2816 1.28007 0.183444 -2.1789
lowerback 11.3141 1.38356 -3.10232
upperback -4.62146 1.59786 2.15998
thorax -11.567 1.09557 3.77107
lowerneck -9.34937 -6.63401 -5.06765
upperneck 19.4059 -9.3386 4.99119
head 8.01151 -4.3633 1.55342
rclavicle -1.5704e-014 -2.90226e-014
rhumerus -31.8727 -4.36323 -81.4357
rradius 29.7825
rwrist 0.552385
rhand -10.2576 16.8961
rfingers 7.12502
rthumb 15.7355 -12.4842
lclavicle -1.5704e-014 -2.90226e-014
lhumerus -39.9327 7.83107 83.7971
lradius 24.7581
lwrist 2.0159
lhand -4.67814 18.9063
lfingers 7.12502
lthumb 21.1026 47.778
rfemur 23.022 10.1547 31.4235
rtibia -3.49861e-014
rfoot -11.4644 -5.79165
rtoes -17.9081
lfemur -33.8809 -21.737 -12.5757
ltibia 28.1788
lfoot -9.36855 15.33
ltoes 15.6977
414
root -0.00120328 15.7624 29.4333 1.11733 -0.0752163 -2.26203
lowerback 11.3372 1.42929 -3.06728
upperback -4.5734 1.66581 2.17447
thorax -11.5322 1.12445 3.75204
lowerneck -9.69596 -6.57459 -4.80413
upperneck 19.7089 -9.24934 4.71948
head 8.14363 -4.31626 1.41735
rclavicle -2.67365e-014 -4.77083e-015
rhumerus -32.2645 -5.03956 -81.2112
rradius 28.7447
rwrist 0.782242
rhand -10.971 17.5134
rfingers 7.12502
rthumb 15.0484 -11.9197
lclavicle -2.67365e-014 -4.77083e-015
lhumerus -39.8861 8.12158 83.4891
lradius 24.5573
lwrist 1.49554
lhand -4.3416 19.2633
lfingers 7.12502
lthumb 21.4259 48.0986
rfemur 23.7357 10.0172 31.4077
rtibia 5.725e-014
rfoot -11.2412 -5.43982
rtoes -19.329
lfemur -33.4801 -21.3477 -12.8527
ltibia 28.6251
lfoot -9.78964 13.6617
ltoes 31.2077
415
root 0.0299166 15.7543 29.588 1.09674 -0.229476 -1.9784
lowerback 11.2401 1.45549 -3.29835
upperback -4.57758 1.65686 2.08505
thorax -11.4832 1.13234 3.78805
lowerneck -10.9659 -6.65268 -4.39606
upperneck 20.5975 -9.32082 4.17253
head 8.62991 -4.33503 1.11021
rclavicle -4.53478e-015 -4.57205e-015
rhumerus -32.6572 -5.50652 -80.9939
rradius 27.6719
rwrist 1.05583
rhand -11.6478 18.2745
rfingers 7.12502
rthumb 14.3964 -11.2062
lclavicle -4.53478e-015 -4.57205e-015
lhumerus -39.7419 8.3905 83.2434
lradius 24.1068
lwrist 0.949945
lhand -3.84125 19.3973
lfingers 7.12502
lthumb 21.9064 48.1771
rfemur 24.3458 9.81691 30.9384
rtibia -4.77083e-014
rfoot -10.8152 -5.12539
rtoes -20.9358
lfemur -33.3037 -21.2101 -13.412
ltibia 29.0193
lfoot -8.90758 13.6181
ltoes 32.9056
416
root 0.0627573 15.7443 29.7439 1.1331 -0.332112 -1.52338
lowerback 11.0698 1.45234 -3.68143
upperback -4.62526 1.58066 1.93441
thorax -11.4365 1.11738 3.8584
lowerneck -10.7978 -6.69322 -4.5535
upperneck 20.6123 -9.38966 4.32762
head 8.62357 -4.36744 1.18437
rclavicle -7.81472e-015 -4.77083e-015
rhumerus -33.0295 -5.96986 -80.742
rradius 26.6089
rwrist 1.51902
rhand -11.7966 18.8501
rfingers 7.12502
rthumb 14.253 -10.6408
lclavicle -7.81472e-015 -4.77083e-015
lhumerus -39.7612 8.47535 83.0538
lradius 23.7195
lwrist 0.699108
lhand -3.9146 19.2086
lfingers 7.12502
lthumb 21.836 47.9966
rfemur 24.9086 9.5845 30.2556
rtibia 2.54444e-014
rfoot -10.2352 -4.73703
rtoes -22.1373
lfemur -33.0261 -20.6809 -14.3498
ltibia 29.3929
lfoot -7.42167 13.5682
ltoes 32.3082
417
root 0.0905868 15.7332 29.8972 1.03359 -0.526132 -1.18834
lowerback 11.0487 1.47703 -4.04457
upperback -4.64766 1.54686 1.83726
thorax -11.4563 1.12458 3.9657
lowerneck -10.3099 -6.68929 -4.824
upperneck 20.4103 -9.41961 4.68356
head 8.49955 -4.38018 1.36115
rclavicle -1.29086e-014 -2.50469e-014
rhumerus -33.5668 -6.79511 -80.2785
rradius 25.6445
rwrist 2.60637
rhand -11.5454 19.7092
rfingers 7.12502
rthumb 14.495 -9.76446
lclavicle -1.29086e-014 -2.50469e-014
lhumerus -39.8477 8.59256 82.8612
lradius 23.3808
lwrist 0.484186
lhand -4.04429 19.368
lfingers 7.12502
lthumb 21.7114 48.1704
rfemur 25.5439 9.41487 29.7414
rtibia -2.22639e-014
rfoot -9.46338 -4.37807
rtoes -22.4428
lfemur -32.5083 -19.8183 -15.2774
ltibia 29.7758
lfoot -5.7208 13.4575
ltoes 29.6754
418
root 0.113848 15.7208 30.0505 0.854163 -0.753785 -1.06027
lowerback 11.1625 1.53781 -4.2342
upperback -4.67472 1.58862 1.785
thorax -11.5658 1.15917 4.00629
lowerneck -9.82467 -6.60611 -4.89248
upperneck 20.0752 -9.35353 4.9722
head 8.31251 -4.34155 1.49499
rclavicle 1.48592e-014 1.59028e-015
rhumerus -34.3381 -8.12201 -79.5727
rradius 24.8905
rwrist 4.23399
rhand -10.8608 19.997
rfingers 7.12502
rthumb 15.1546 -9.42807
lclavicle 1.48592e-014 1.59028e-015
lhumerus -39.9711 8.72885 82.5968
lradius 23.1903
lwrist 0.126681
lhand -3.80336 19.6049
lfingers 7.12502
lthumb 21.9428 48.3805
rfemur 26.239 9.26059 29.4829
rtibia -5.40694e-014
rfoot -8.65605 -4.14132
rtoes -21.8152
lfemur -31.9674 -18.8498 -15.893
ltibia 30.2056
lfoot -5.17306 12.898
ltoes 31.2342
